{"title":"Predators 2010 DVDrip English Klam","uid":6622284,"size":1406149852,"categoryP":"video","categoryS":"movies","magnet":"?xt=urn:btih:53af8851572a4c12de956f8da23ae274ded0e093&amp;dn=Predators+2010+DVDrip+English+Klam&amp;tr=udp%3A%2F%2Ftracker.openbittorrent.com%3A80&amp;tr=udp%3A%2F%2Fopen.demonii.com%3A1337&amp;tr=udp%3A%2F%2Ftracker.coppersurfer.tk%3A6969&amp;tr=udp%3A%2F%2Fexodus.desync.com%3A6969","seeders":1,"leechers":0,"uploader":"Klambake","files":-1,"time":1314038706,"description":"With: Adrien Brody, Alice Braga and Topher Grace\n\nDe film speelt zich af op de jungle-achtige thuisplaneet van de Predators. Op deze planeet huist ook een 'Mega-Predator' die elk jaar een groep van de gevaarlijkste individuen van de planeet aarde ontvoert, om ze vervolgens als prooi vrij te laten in de dodelijke jungle van de Predator-thuisplaneet. Royce (Adrien Brody) is de leider van een groepje huurlingen, dat onder andere bestaat uit een taaie vrouwelijke moordenaar, een man die totaal niet bang is om te sterven en een voormalige Russisch geheimagent. Samen moeten ze zien te overleven in de wildernis terwijl ze wanhopig proberen uit te vinden wat er met hen is gebeurd en door wie of wat ze worden opgejaagd...\n\nA group of elite warriors are hunted by members of a merciless alien race known as Predators.\n\n------------------ Dutch Friends ------------------\nYou can find my Friends at: http://www.Film-Test.nl \n------ They got my dutchs subs ---- and more ------\n\nGeneral:\n\nComplete name                    : Predators\\Predators.avi\nFormat                           : AVI\nFormat/Info                      : Audio Video Interleave\nFile size                        : 1.31 GiB\nDuration                         : 1h 41mn\nOverall bit rate                 : 1 849 Kbps\n\nVideo:\n\nFormat                           : MPEG-4 Visual\nFormat profile                   : Simple@L3\nFormat settings, BVOP            : No\nFormat settings, QPel            : No\nFormat settings, GMC             : No warppoints\nFormat settings, Matrix          : Default (H.263)\nCodec ID                         : XVID\nCodec ID/Hint                    : XviD\nDuration                         : 1h 41mn\nBit rate                         : 1 390 Kbps\nWidth                            : 720 pixels\nHeight                           : 304 pixels\nDisplay aspect ratio             : 2.35:1\nFrame rate                       : 25.000 fps\nColor space                      : YUV\nChroma subsampling               : 4:2:0\nBit depth                        : 8 bits\nScan type                        : Progressive\nBits/(Pixel*Frame)               : 0.254\nStream size                      : 1 008 MiB (75%)\nWriting library                  : XviD 1.1.2 (UTC 2006-11-01)\n\nAudio:\n\nFormat                           : AC-3\nFormat/Info                      : Audio Coding 3\nMode extension                   : CM (complete main)\nCodec ID                         : 2000\nDuration                         : 1h 41mn\nBit rate mode                    : Constant\nBit rate                         : 448 Kbps\nChannel(s)                       : 6 channels\nChannel positions                : Front: L C R, Side: L R, LFE\nSampling rate                    : 48.0 KHz\nBit depth                        : 16 bits\nStream size                      : 325 MiB (24%)\nAlignment                        : Aligned on interleaves\nInterleave, duration             : 32 ms (0.80 video frame)\nInterleave, preload duration     : 128 ms\n\n","torrent":{"xt":"urn:btih:53af8851572a4c12de956f8da23ae274ded0e093","amp;dn":"Predators+2010+DVDrip+English+Klam","amp;tr":["udp%3A%2F%2Ftracker.openbittorrent.com%3A80","udp%3A%2F%2Fopen.demonii.com%3A1337","udp%3A%2F%2Ftracker.coppersurfer.tk%3A6969","udp%3A%2F%2Fexodus.desync.com%3A6969"],"infoHash":"53af8851572a4c12de956f8da23ae274ded0e093","infoHashBuffer":{"type":"Buffer","data":[83,175,136,81,87,42,76,18,222,149,111,141,162,58,226,116,222,208,224,147]},"announce":[],"urlList":[]}}